<svg xmlns="http://www.w3.org/2000/svg" xmlns:xlink="http://www.w3.org/1999/xlink" width="180" zoomAndPan="magnify" viewBox="0 0 135 30.000001" height="40" preserveAspectRatio="xMidYMid meet" version="1.0"><defs><g/><clipPath id="5ef65ab863"><path d="M 13.503906 0 L 22.949219 0 L 22.949219 8.910156 L 13.503906 8.910156 Z M 13.503906 0 " clip-rule="nonzero"/></clipPath><clipPath id="b4c718db9a"><path d="M 23.054688 4 L 28.785156 4 L 28.785156 9 L 23.054688 9 Z M 23.054688 4 " clip-rule="nonzero"/></clipPath></defs><g clip-path="url(#5ef65ab863)"><path fill="#44ac41" d="M 15.558594 1.628906 C 20.105469 1.609375 22.546875 3.730469 22.753906 8.125 C 22.757812 8.183594 22.839844 8.183594 22.847656 8.128906 C 23.050781 6.695312 23.011719 5.386719 22.644531 4.246094 C 21.441406 0.492188 16.855469 0 13.597656 1.1875 C 13.4375 1.246094 13.402344 1.457031 13.539062 1.566406 C 16.078125 3.597656 15.730469 9.136719 21.914062 6.734375 C 20.949219 3.734375 18.96875 1.875 15.558594 1.628906 " fill-opacity="1" fill-rule="evenodd"/></g><g clip-path="url(#b4c718db9a)"><path fill="#44ac41" d="M 27.566406 4.617188 C 24.828125 4.605469 23.359375 5.882812 23.230469 8.53125 C 23.230469 8.5625 23.183594 8.566406 23.175781 8.53125 C 23.054688 7.667969 23.078125 6.878906 23.296875 6.195312 C 24.023438 3.933594 26.785156 3.636719 28.746094 4.351562 C 28.84375 4.386719 28.863281 4.515625 28.78125 4.578125 C 27.253906 5.800781 27.460938 9.136719 23.738281 7.691406 C 24.320312 5.886719 25.511719 4.765625 27.566406 4.617188 " fill-opacity="1" fill-rule="evenodd"/></g><g fill="#ffffff" fill-opacity="1"><g transform="translate(18.397598, 27.426335)"><g><path d="M 2.359375 -13.453125 L 2.359375 -18.46875 L 7 -18.46875 L 7 -13.453125 L 9.84375 -13.453125 L 9.84375 -9.921875 L 7 -9.921875 L 7 -5.640625 C 7 -4.398438 7.347656 -3.78125 8.046875 -3.78125 C 8.222656 -3.78125 8.40625 -3.8125 8.59375 -3.875 C 8.789062 -3.945312 8.941406 -4.019531 9.046875 -4.09375 L 9.203125 -4.203125 L 10.359375 -0.453125 C 9.367188 0.109375 8.234375 0.390625 6.953125 0.390625 C 6.078125 0.390625 5.320312 0.238281 4.6875 -0.0625 C 4.0625 -0.375 3.585938 -0.785156 3.265625 -1.296875 C 2.941406 -1.816406 2.707031 -2.359375 2.5625 -2.921875 C 2.425781 -3.492188 2.359375 -4.101562 2.359375 -4.75 L 2.359375 -9.921875 L 0.421875 -9.921875 L 0.421875 -13.453125 Z M 2.359375 -13.453125 "/></g></g></g><g fill="#ffffff" fill-opacity="1"><g transform="translate(28.757484, 27.426335)"><g><path d="M 15.1875 -6.09375 L 5.4375 -6.09375 C 5.4375 -5.144531 5.738281 -4.441406 6.34375 -3.984375 C 6.957031 -3.535156 7.625 -3.3125 8.34375 -3.3125 C 9.09375 -3.3125 9.6875 -3.410156 10.125 -3.609375 C 10.5625 -3.804688 11.0625 -4.203125 11.625 -4.796875 L 14.984375 -3.125 C 13.578125 -0.78125 11.25 0.390625 8 0.390625 C 5.96875 0.390625 4.226562 -0.300781 2.78125 -1.6875 C 1.332031 -3.082031 0.609375 -4.757812 0.609375 -6.71875 C 0.609375 -8.675781 1.332031 -10.351562 2.78125 -11.75 C 4.226562 -13.15625 5.96875 -13.859375 8 -13.859375 C 10.132812 -13.859375 11.867188 -13.238281 13.203125 -12 C 14.546875 -10.769531 15.21875 -9.007812 15.21875 -6.71875 C 15.21875 -6.40625 15.207031 -6.195312 15.1875 -6.09375 Z M 5.5625 -8.65625 L 10.671875 -8.65625 C 10.566406 -9.351562 10.289062 -9.890625 9.84375 -10.265625 C 9.40625 -10.640625 8.832031 -10.828125 8.125 -10.828125 C 7.363281 -10.828125 6.753906 -10.625 6.296875 -10.21875 C 5.835938 -9.820312 5.59375 -9.300781 5.5625 -8.65625 Z M 5.5625 -8.65625 "/></g></g></g><g fill="#ffffff" fill-opacity="1"><g transform="translate(44.572706, 27.426335)"><g><path d="M 1.578125 0 L 1.578125 -22.5625 L 6.21875 -22.5625 L 6.21875 0 Z M 1.578125 0 "/></g></g></g><g fill="#ffffff" fill-opacity="1"><g transform="translate(52.362292, 27.426335)"><g><path d="M 15.1875 -6.09375 L 5.4375 -6.09375 C 5.4375 -5.144531 5.738281 -4.441406 6.34375 -3.984375 C 6.957031 -3.535156 7.625 -3.3125 8.34375 -3.3125 C 9.09375 -3.3125 9.6875 -3.410156 10.125 -3.609375 C 10.5625 -3.804688 11.0625 -4.203125 11.625 -4.796875 L 14.984375 -3.125 C 13.578125 -0.78125 11.25 0.390625 8 0.390625 C 5.96875 0.390625 4.226562 -0.300781 2.78125 -1.6875 C 1.332031 -3.082031 0.609375 -4.757812 0.609375 -6.71875 C 0.609375 -8.675781 1.332031 -10.351562 2.78125 -11.75 C 4.226562 -13.15625 5.96875 -13.859375 8 -13.859375 C 10.132812 -13.859375 11.867188 -13.238281 13.203125 -12 C 14.546875 -10.769531 15.21875 -9.007812 15.21875 -6.71875 C 15.21875 -6.40625 15.207031 -6.195312 15.1875 -6.09375 Z M 5.5625 -8.65625 L 10.671875 -8.65625 C 10.566406 -9.351562 10.289062 -9.890625 9.84375 -10.265625 C 9.40625 -10.640625 8.832031 -10.828125 8.125 -10.828125 C 7.363281 -10.828125 6.753906 -10.625 6.296875 -10.21875 C 5.835938 -9.820312 5.59375 -9.300781 5.5625 -8.65625 Z M 5.5625 -8.65625 "/></g></g></g><g fill="#ffffff" fill-opacity="1"><g transform="translate(68.177514, 27.426335)"><g><path d="M 4.984375 -13.453125 L 8.265625 -6.140625 L 11.546875 -13.453125 L 17.046875 -13.453125 L 9.84375 0 L 6.6875 0 L -0.53125 -13.453125 Z M 4.984375 -13.453125 "/></g></g></g><g fill="#ffffff" fill-opacity="1"><g transform="translate(84.700876, 27.426335)"><g><path d="M 2.015625 -20.953125 C 2.554688 -21.503906 3.203125 -21.78125 3.953125 -21.78125 C 4.710938 -21.78125 5.363281 -21.503906 5.90625 -20.953125 C 6.445312 -20.410156 6.71875 -19.765625 6.71875 -19.015625 C 6.71875 -18.265625 6.445312 -17.617188 5.90625 -17.078125 C 5.363281 -16.535156 4.710938 -16.265625 3.953125 -16.265625 C 3.203125 -16.265625 2.554688 -16.535156 2.015625 -17.078125 C 1.472656 -17.617188 1.203125 -18.265625 1.203125 -19.015625 C 1.203125 -19.765625 1.472656 -20.410156 2.015625 -20.953125 Z M 1.578125 -13.453125 L 1.578125 0 L 6.21875 0 L 6.21875 -13.453125 Z M 1.578125 -13.453125 "/></g></g></g><g fill="#ffffff" fill-opacity="1"><g transform="translate(92.621603, 27.426335)"><g><path d="M 8.734375 -10.046875 C 7.859375 -10.046875 7.101562 -9.722656 6.46875 -9.078125 C 5.84375 -8.429688 5.53125 -7.65625 5.53125 -6.75 C 5.53125 -5.820312 5.84375 -5.03125 6.46875 -4.375 C 7.101562 -3.726562 7.859375 -3.40625 8.734375 -3.40625 C 9.148438 -3.40625 9.546875 -3.457031 9.921875 -3.5625 C 10.304688 -3.664062 10.582031 -3.769531 10.75 -3.875 L 11 -4.046875 L 12.5625 -0.8125 C 12.4375 -0.726562 12.265625 -0.617188 12.046875 -0.484375 C 11.835938 -0.347656 11.34375 -0.171875 10.5625 0.046875 C 9.78125 0.273438 8.941406 0.390625 8.046875 0.390625 C 6.078125 0.390625 4.34375 -0.300781 2.84375 -1.6875 C 1.351562 -3.082031 0.609375 -4.75 0.609375 -6.6875 C 0.609375 -8.644531 1.351562 -10.328125 2.84375 -11.734375 C 4.34375 -13.148438 6.078125 -13.859375 8.046875 -13.859375 C 8.941406 -13.859375 9.765625 -13.75 10.515625 -13.53125 C 11.265625 -13.320312 11.800781 -13.113281 12.125 -12.90625 L 12.5625 -12.59375 L 11 -9.421875 C 10.414062 -9.835938 9.660156 -10.046875 8.734375 -10.046875 Z M 8.734375 -10.046875 "/></g></g></g><g fill="#ffffff" fill-opacity="1"><g transform="translate(105.499338, 27.426335)"><g><path d="M 15.1875 -6.09375 L 5.4375 -6.09375 C 5.4375 -5.144531 5.738281 -4.441406 6.34375 -3.984375 C 6.957031 -3.535156 7.625 -3.3125 8.34375 -3.3125 C 9.09375 -3.3125 9.6875 -3.410156 10.125 -3.609375 C 10.5625 -3.804688 11.0625 -4.203125 11.625 -4.796875 L 14.984375 -3.125 C 13.578125 -0.78125 11.25 0.390625 8 0.390625 C 5.96875 0.390625 4.226562 -0.300781 2.78125 -1.6875 C 1.332031 -3.082031 0.609375 -4.757812 0.609375 -6.71875 C 0.609375 -8.675781 1.332031 -10.351562 2.78125 -11.75 C 4.226562 -13.15625 5.96875 -13.859375 8 -13.859375 C 10.132812 -13.859375 11.867188 -13.238281 13.203125 -12 C 14.546875 -10.769531 15.21875 -9.007812 15.21875 -6.71875 C 15.21875 -6.40625 15.207031 -6.195312 15.1875 -6.09375 Z M 5.5625 -8.65625 L 10.671875 -8.65625 C 10.566406 -9.351562 10.289062 -9.890625 9.84375 -10.265625 C 9.40625 -10.640625 8.832031 -10.828125 8.125 -10.828125 C 7.363281 -10.828125 6.753906 -10.625 6.296875 -10.21875 C 5.835938 -9.820312 5.59375 -9.300781 5.5625 -8.65625 Z M 5.5625 -8.65625 "/></g></g></g></svg>